HIERARCHY
ROOT hip
{
  OFFSET 0 0 0
  CHANNELS 6 Xposition Yposition Zposition Zrotation Yrotation Xrotation
  JOINT abdomen
  {
    OFFSET 0 20.6881 -0.73152
    CHANNELS 3 Zrotation Xrotation Yrotation
    JOINT chest
    {
      OFFSET 0 11.7043 -0.48768
      CHANNELS 3 Zrotation Xrotation Yrotation
      JOINT neck
      {
        OFFSET 0 22.1894 -2.19456
        CHANNELS 3 Zrotation Xrotation Yrotation
        JOINT head
        {
          OFFSET -0.24384 7.07133 1.2192
          CHANNELS 3 Zrotation Xrotation Yrotation
          JOINT leftEye
          {
            OFFSET 4.14528 8.04674 8.04672
            CHANNELS 3 Zrotation Xrotation Yrotation
            End Site
            {
              OFFSET 1 0 0
            }
          }
          JOINT rightEye
          {
            OFFSET -3.6576 8.04674 8.04672
            CHANNELS 3 Zrotation Xrotation Yrotation
            End Site
            {
              OFFSET 1 0 0
            }
          }
        }
      }
      JOINT rCollar
      {
        OFFSET -2.68224 19.2634 -4.8768
        CHANNELS 3 Zrotation Xrotation Yrotation
        JOINT rShldr
        {
          OFFSET -8.77824 -1.95073 1.46304
          CHANNELS 3 Zrotation Xrotation Yrotation
          JOINT rForeArm
          {
            OFFSET -28.1742 -1.7115 0.48768
            CHANNELS 3 Zrotation Xrotation Yrotation
            JOINT rHand
            {
              OFFSET -22.5879 0.773209 7.07136
              CHANNELS 3 Zrotation Xrotation Yrotation
              JOINT rThumb1
              {
                OFFSET -1.2192 -0.487915 3.41376
                CHANNELS 3 Zrotation Xrotation Yrotation
                JOINT rThumb2
                {
                  OFFSET -3.37035 -0.52449 3.41376
                  CHANNELS 3 Zrotation Xrotation Yrotation
                  End Site
                  {
                    OFFSET -1.78271 -1.18214 1.43049
                  }
                }
              }
              JOINT rIndex1
              {
                OFFSET -7.75947 0.938293 5.60832
                CHANNELS 3 Zrotation Xrotation Yrotation
                JOINT rIndex2
                {
                  OFFSET -2.54057 -0.884171 1.56538
                  CHANNELS 3 Zrotation Xrotation Yrotation
                  End Site
                  {
                    OFFSET -1.62519 -0.234802 1.16502
                  }
                }
              }
              JOINT rMid1
              {
                OFFSET -8.24714 1.18213 3.41376
                CHANNELS 3 Zrotation Xrotation Yrotation
                JOINT rMid2
                {
                  OFFSET -3.10165 -0.590103 1.0647
                  CHANNELS 3 Zrotation Xrotation Yrotation
                  End Site
                  {
                    OFFSET -2.48547 -0.328903 0.83742
                  }
                }
              }
              JOINT rRing1
              {
                OFFSET -8.82822 0.546677 1.51678
                CHANNELS 3 Zrotation Xrotation Yrotation
                JOINT rRing2
                {
                  OFFSET -2.60934 -0.819778 -0.0198488
                  CHANNELS 3 Zrotation Xrotation Yrotation
                  End Site
                  {
                    OFFSET -2.33842 -0.294052 0.168128
                  }
                }
              }
              JOINT rPinky1
              {
                OFFSET -8.27202 -0.0477905 -0.4584
                CHANNELS 3 Zrotation Xrotation Yrotation
                JOINT rPinky2
                {
                  OFFSET -1.82734 -0.647385 -0.700984
                  CHANNELS 3 Zrotation Xrotation Yrotation
                  End Site
                  {
                    OFFSET -1.69225 -0.51767 -0.607171
                  }
                }
              }
            }
          }
        }
      }
      JOINT lCollar
      {
        OFFSET 2.68224 19.2634 -4.8768
        CHANNELS 3 Zrotation Xrotation Yrotation
        JOINT lShldr
        {
          OFFSET 8.77824 -1.95073 1.46304
          CHANNELS 3 Zrotation Xrotation Yrotation
          JOINT lForeArm
          {
            OFFSET 28.1742 -1.7115 0.48768
            CHANNELS 3 Zrotation Xrotation Yrotation
            JOINT lHand
            {
              OFFSET 22.5879 0.773209 7.07136
              CHANNELS 3 Zrotation Xrotation Yrotation
              JOINT lThumb1
              {
                OFFSET 1.2192 -0.487915 3.41376
                CHANNELS 3 Zrotation Xrotation Yrotation
                JOINT lThumb2
                {
                  OFFSET 3.37035 -0.52449 3.41376
                  CHANNELS 3 Zrotation Xrotation Yrotation
                  End Site
                  {
                    OFFSET 1.78271 -1.18214 1.43049
                  }
                }
              }
              JOINT lIndex1
              {
                OFFSET 7.75947 0.938293 5.60832
                CHANNELS 3 Zrotation Xrotation Yrotation
                JOINT lIndex2
                {
                  OFFSET 2.54057 -0.884171 1.56538
                  CHANNELS 3 Zrotation Xrotation Yrotation
                  End Site
                  {
                    OFFSET 1.62519 -0.234802 1.16502
                  }
                }
              }
              JOINT lMid1
              {
                OFFSET 8.24714 1.18213 3.41376
                CHANNELS 3 Zrotation Xrotation Yrotation
                JOINT lMid2
                {
                  OFFSET 3.10165 -0.590103 1.0647
                  CHANNELS 3 Zrotation Xrotation Yrotation
                  End Site
                  {
                    OFFSET 2.48547 -0.328903 0.83742
                  }
                }
              }
              JOINT lRing1
              {
                OFFSET 8.82822 0.546677 1.51678
                CHANNELS 3 Zrotation Xrotation Yrotation
                JOINT lRing2
                {
                  OFFSET 2.60934 -0.819778 -0.0198488
                  CHANNELS 3 Zrotation Xrotation Yrotation
                  End Site
                  {
                    OFFSET 2.33842 -0.294052 0.168128
                  }
                }
              }
              JOINT lPinky1
              {
                OFFSET 8.27202 -0.0477905 -0.4584
                CHANNELS 3 Zrotation Xrotation Yrotation
                JOINT lPinky2
                {
                  OFFSET 1.82734 -0.647385 -0.700984
                  CHANNELS 3 Zrotation Xrotation Yrotation
                  End Site
                  {
                    OFFSET 1.69225 -0.51767 -0.607171
                  }
                }
              }
            }
          }
        }
      }
    }
  }
  JOINT rButtock
  {
    OFFSET -8.77824 4.35084 1.2192
    CHANNELS 3 Zrotation Xrotation Yrotation
    JOINT rThigh
    {
      OFFSET 0 -1.70687 -2.19456
      CHANNELS 3 Zrotation Xrotation Yrotation
      JOINT rShin
      {
        OFFSET 0 -36.8199 0.73152
        CHANNELS 3 Zrotation Xrotation Yrotation
        JOINT rFoot
        {
          OFFSET 0.73152 -45.1104 -5.12064
          CHANNELS 3 Zrotation Xrotation Yrotation
          End Site
          {
            OFFSET -1.1221 -3.69964 12.103
          }
        }
      }
    }
  }
  JOINT lButtock
  {
    OFFSET 8.77824 4.35084 1.2192
    CHANNELS 3 Zrotation Xrotation Yrotation
    JOINT lThigh
    {
      OFFSET 0 -1.70687 -2.19456
      CHANNELS 3 Zrotation Xrotation Yrotation
      JOINT lShin
      {
        OFFSET 0 -36.8199 0.73152
        CHANNELS 3 Zrotation Xrotation Yrotation
        JOINT lFoot
        {
          OFFSET -0.73152 -45.1104 -5.12064
          CHANNELS 3 Zrotation Xrotation Yrotation
          End Site
          {
            OFFSET 1.1221 -3.69964 12.103
          }
        }
      }
    }
  }
}
MOTION
Frames:	4
Frame Time:	0.00833333
11.1528 84.7178 -170.941 0.0 0.0 0.0 -0.462528 -0.00207378 -0.0132009 -0.127531 -0.00315855 -0.0220952 1.5558e-14 -1.59028e-15 -2.42269e-16 4.65715e-14 3.18055e-15 -7.29912e-16 -0.0 0.0 0.0 -0.0 0.0 0.0 7.70186e-15 4.27076e-18 4.96962e-17 1.65802e-13 2.98177e-16 -9.93923e-16 2.80421e-12 -8.36685e-13 -8.90555e-14 3.20935e-11 8.41754e-13 -4.42097e-13 7.57015e-11 4.34578e-15 -1.14182e-12 1.30732e-10 6.36111e-15 -1.98705e-12 7.57075e-11 7.15625e-15 -1.15772e-12 7.73091 5.47488 0.417314 7.57019e-11 4.47265e-15 -1.145e-12 2.90554 0.965183 0.102902 7.57135e-11 4.96962e-15 -1.145e-12 10.2786 0.731801 0.0259123 7.5698e-11 4.37326e-15 -1.13864e-12 2.22167 -0.733487 -0.20892 7.70447e-15 2.91188e-18 -2.48481e-16 1.607e-13 3.16813e-16 -2.5842e-15 2.80421e-12 8.37679e-13 -4.45278e-14 3.20907e-11 -8.35517e-13 -4.67542e-13 7.5699e-11 -5.44087e-16 -1.13864e-12 1.30732e-10 0.0 -1.97274e-12 7.5692e-11 1.98785e-15 -1.13228e-12 -7.73091 5.47488 -0.417314 7.56968e-11 3.97569e-16 -1.13864e-12 -2.90554 0.965183 -0.102902 7.56896e-11 5.96354e-16 -1.14102e-12 -10.2786 0.731801 -0.0259123 7.57014e-11 7.95139e-16 -1.145e-12 -2.22167 -0.733487 0.20892 -2.03217e-16 0.0 -3.88251e-19 0.172355 -2.48161 -0.0258952 -0.00786735 -1.0571 -0.0680511 -0.522442 3.53839 0.132385 2.03217e-16 0.0 3.88251e-19 -0.875858 -4.26242 0.0710584 0.00283243 2.1685 0.0189694 0.527732 2.09369 -0.103297
10.6886 83.9392 -172.608 -1.9875 -0.4679 2.9174 -0.689352 1.11789 -0.354421 0.736195 -0.839368 -0.11546 -0.915947 1.14136 -0.113632 -0.941657 0.157978 -0.0383093 -0.0 0.0 0.0 -0.0 0.0 0.0 -6.20223e-15 -4.63056e-16 -1.2645e-14 22.8091 1.98909 0.238342 -3.02035 -1.19761 4.8903 2.38735e-05 -0.11301 -0.0158824 2.07595e-10 -1.51563e-10 -1.32369e-10 3.58594e-10 -2.62323e-10 -2.29391e-10 2.07602e-10 -1.51561e-10 -1.32383e-10 7.73091 5.47488 0.417314 2.07595e-10 -1.51562e-10 -1.32372e-10 2.90554 0.965183 0.102902 2.07604e-10 -1.51562e-10 -1.32371e-10 10.2786 0.731801 0.0259123 2.07591e-10 -1.51563e-10 -1.32365e-10 2.22167 -0.733487 -0.20892 -6.14767e-15 -4.63237e-16 -1.2867e-14 -25.6318 3.90135 5.70745 9.48041 -6.34059 -11.9482 -0.0116927 -2.39901 0.336092 1.29174e-10 1.11563e-10 1.14731e-12 2.23019e-10 1.92903e-10 2.46364e-12 1.29168e-10 1.11566e-10 1.15265e-12 -7.73091 5.47488 -0.417314 1.29173e-10 1.11564e-10 1.14368e-12 -2.90554 0.965183 -0.102902 1.29166e-10 1.11565e-10 1.14266e-12 -10.2786 0.731801 -0.0259123 1.29176e-10 1.11565e-10 1.13827e-12 -2.22167 -0.733487 0.20892 -2.03217e-16 0.0 -3.88251e-19 0.447728 -2.95926 0.513336 -0.00339097 3.44055 0.0336259 -0.733499 -0.924095 -2.51118 2.03217e-16 0.0 3.88251e-19 -0.00905302 -3.76283 0.856975 0.000325263 4.60423 -0.0310037 0.50507 -1.76539 0.0360404
10.691 83.9385 -172.611 -1.9731 -0.4737 2.9307 -0.912039 2.29977 -0.707921 1.64241 -1.72153 -0.212178 -1.87581 2.35881 -0.225666 -1.90865 0.296451 -0.0653792 -0.0 0.0 0.0 -0.0 0.0 0.0 -2.13752e-14 -2.83137e-15 -2.64477e-14 46.9063 4.08633 0.490627 -5.99062 -2.43384 10.0648 -2.08845e-05 -0.236167 -0.0331911 3.42106e-10 -3.19827e-10 -2.64867e-10 5.9099e-10 -5.53545e-10 -4.59065e-10 3.42114e-10 -3.19827e-10 -2.64879e-10 7.73091 5.47488 0.417314 3.42105e-10 -3.19825e-10 -2.6487e-10 2.90554 0.965183 0.102902 3.42113e-10 -3.19825e-10 -2.64868e-10 10.2786 0.731801 0.0259123 3.42102e-10 -3.19826e-10 -2.64861e-10 2.22167 -0.733487 -0.20892 -2.12655e-14 -2.83027e-15 -2.65843e-14 -53.567 7.90556 11.8201 16.6559 -12.112 -25.0159 0.00664868 -4.93327 0.693134 1.73618e-10 2.19848e-10 9.66869e-12 2.99609e-10 3.80099e-10 1.7616e-11 1.73614e-10 2.19851e-10 9.67286e-12 -7.73091 5.47488 -0.417314 1.73619e-10 2.19849e-10 9.66113e-12 -2.90554 0.965183 -0.102902 1.73612e-10 2.1985e-10 9.66158e-12 -10.2786 0.731801 -0.0259123 1.7362e-10 2.1985e-10 9.65676e-12 -2.22167 -0.733487 0.20892 -2.03217e-16 0.0 -3.88251e-19 0.749967 -3.46121 1.08363 -0.0161855 8.19386 0.142425 -1.40536 -5.62087 -5.32976 2.03217e-16 0.0 3.88251e-19 0.894098 -3.23274 1.68831 0.00236902 7.17924 -0.0843518 0.5011 -5.84622 0.181328
10.6923 83.9383 -172.611 -1.9074 -0.479 2.9365 -1.10292 3.35733 -1.03844 2.45546 -2.51176 -0.302444 -2.73424 3.42402 -0.341438 -2.82434 0.473934 -0.114932 -0.0 0.0 0.0 -0.0 0.0 0.0 -3.40104e-14 -1.39771e-15 -3.80343e-14 68.3773 5.96686 0.718487 -8.45423 -3.48829 14.6955 -0.00011634 -0.339029 -0.0476479 4.71381e-10 -4.54697e-10 -3.94823e-10 8.14319e-10 -7.86981e-10 -6.84197e-10 4.7139e-10 -4.54699e-10 -3.94833e-10 7.73091 5.47488 0.417314 4.7138e-10 -4.54696e-10 -3.94826e-10 2.90554 0.965183 0.102902 4.71386e-10 -4.54696e-10 -3.94824e-10 10.2786 0.731801 0.0259123 4.71378e-10 -4.54697e-10 -3.94817e-10 2.22167 -0.733487 -0.20892 -3.3852e-14 -1.39553e-15 -3.81041e-14 -79.2266 11.2364 17.427 20.8417 -15.696 -37.2286 0.0499222 -7.19604 1.01539 2.36124e-10 3.34691e-10 5.71921e-12 4.07593e-10 5.78709e-10 1.13364e-11 2.36121e-10 3.34694e-10 5.72252e-12 -7.73091 5.47488 -0.417314 2.36126e-10 3.34693e-10 5.70833e-12 -2.90554 0.965183 -0.102902 2.36119e-10 3.34693e-10 5.71002e-12 -10.2786 0.731801 -0.0259123 2.36126e-10 3.34694e-10 5.7048e-12 -2.22167 -0.733487 0.20892 -2.03217e-16 0.0 -3.88251e-19 1.0255 -3.9134 1.59341 -0.0431087 12.4357 0.242464 -2.39995 -9.75977 -7.91206 2.03217e-16 0.0 3.88251e-19 1.6834 -2.76243 2.42648 0.00821089 9.47567 -0.13243 0.516502 -9.48342 0.318885
